<svg width="40" height="40" viewBox="0 0 40 40" fill="none" xmlns="http://www.w3.org/2000/svg">
<path d="M15.772 10.439L16.848 10.095C17.858 9.77299 18.935 10.294 19.368 11.312L20.227 13.34C20.601 14.223 20.394 15.262 19.713 15.908L17.819 17.706C17.935 18.782 18.297 19.841 18.903 20.883C19.4788 21.8912 20.251 22.7736 21.174 23.478L23.449 22.718C24.312 22.431 25.251 22.762 25.779 23.539L27.012 25.349C27.627 26.253 27.517 27.499 26.754 28.265L25.936 29.086C25.122 29.903 23.959 30.2 22.884 29.864C20.345 29.072 18.011 26.721 15.881 22.811C13.748 18.895 12.995 15.571 13.623 12.843C13.887 11.695 14.704 10.78 15.772 10.439Z" fill="#707991"/>
</svg>
