<svg width="40" height="40" viewBox="0 0 40 40" fill="none" xmlns="http://www.w3.org/2000/svg">
<path d="M18 10.5C19.398 10.4999 20.7681 10.8906 21.9559 11.6279C23.1436 12.3652 24.1016 13.4198 24.7218 14.6727C25.342 15.9256 25.5997 17.3269 25.4658 18.7184C25.3319 20.11 24.8117 21.4364 23.964 22.548L28.707 27.293C28.8864 27.473 28.9905 27.7144 28.9982 27.9684C29.006 28.2223 28.9168 28.4697 28.7488 28.6603C28.5807 28.8508 28.3464 28.9703 28.0935 28.9944C27.8406 29.0185 27.588 28.9454 27.387 28.79L27.293 28.707L22.548 23.964C21.601 24.6861 20.4957 25.1723 19.3234 25.3824C18.1512 25.5925 16.9458 25.5204 15.807 25.1721C14.6682 24.8238 13.6287 24.2094 12.7745 23.3795C11.9203 22.5497 11.2759 21.5285 10.8948 20.4002C10.5137 19.2719 10.4068 18.0691 10.5828 16.8913C10.7588 15.7135 11.2128 14.5945 11.9072 13.627C12.6016 12.6595 13.5163 11.8713 14.5758 11.3275C15.6353 10.7837 16.8091 10.5001 18 10.5ZM18 12.5C16.5413 12.5 15.1424 13.0795 14.1109 14.1109C13.0795 15.1424 12.5 16.5413 12.5 18C12.5 19.4587 13.0795 20.8576 14.1109 21.8891C15.1424 22.9205 16.5413 23.5 18 23.5C19.4587 23.5 20.8576 22.9205 21.8891 21.8891C22.9205 20.8576 23.5 19.4587 23.5 18C23.5 16.5413 22.9205 15.1424 21.8891 14.1109C20.8576 13.0795 19.4587 12.5 18 12.5Z" fill="#707991"/>
</svg>
