<svg width="40" height="40" viewBox="0 0 40 40" fill="none" xmlns="http://www.w3.org/2000/svg">
<path d="M11 25H29C29.2549 25.0003 29.5 25.0979 29.6854 25.2728C29.8707 25.4478 29.9822 25.687 29.9972 25.9414C30.0121 26.1958 29.9293 26.4464 29.7657 26.6418C29.6021 26.8373 29.3701 26.9629 29.117 26.993L29 27H11C10.7451 26.9997 10.5 26.9021 10.3146 26.7272C10.1293 26.5522 10.0178 26.313 10.0028 26.0586C9.98788 25.8042 10.0707 25.5536 10.2343 25.3582C10.3978 25.1627 10.6299 25.0371 10.883 25.007L11 25H29H11ZM11 19L29 18.998C29.2549 18.9983 29.5 19.0959 29.6854 19.2708C29.8707 19.4458 29.9822 19.685 29.9972 19.9394C30.0121 20.1938 29.9293 20.4444 29.7657 20.6398C29.6021 20.8353 29.3701 20.9609 29.117 20.991L29 20.998L11 21C10.7451 20.9997 10.5 20.9021 10.3146 20.7272C10.1293 20.5522 10.0178 20.313 10.0028 20.0586C9.98788 19.8042 10.0707 19.5536 10.2343 19.3582C10.3978 19.1627 10.6299 19.0371 10.883 19.007L11 19L29 18.998L11 19ZM11 13H29C29.2549 13.0003 29.5 13.0979 29.6854 13.2728C29.8707 13.4478 29.9822 13.687 29.9972 13.9414C30.0121 14.1958 29.9293 14.4464 29.7657 14.6418C29.6021 14.8373 29.3701 14.9629 29.117 14.993L29 15H11C10.7451 14.9997 10.5 14.9021 10.3146 14.7272C10.1293 14.5522 10.0178 14.313 10.0028 14.0586C9.98788 13.8042 10.0707 13.5536 10.2343 13.3582C10.3978 13.1627 10.6299 13.0371 10.883 13.007L11 13H29H11Z" fill="#707991"/>
</svg>
